<svg xmlns="http://www.w3.org/2000/svg" width="37.969" height="37.969" viewBox="0 0 37.969 37.969">
  <g id="Group_401" data-name="Group 401" transform="translate(-919.299 -1631.112)">
    <circle id="Ellipse_101" data-name="Ellipse 101" cx="18.5" cy="18.5" r="18.5" transform="translate(919.783 1631.596)" fill="#fff"/>
    <g id="Group_399" data-name="Group 399">
      <g id="Group_398" data-name="Group 398">
        <g id="Group_397" data-name="Group 397">
          <path id="Path_551" data-name="Path 551" d="M932.205,1657.483h-2.222a5.036,5.036,0,1,1,0-10.072h.107v-1.222a6.64,6.64,0,0,1,13.269-.231H946.2a5.437,5.437,0,0,1,5.425,5.421v.678a5.441,5.441,0,0,1-5.425,5.426h-1.6" fill="none" stroke="#a3a3a3" stroke-miterlimit="10" stroke-width="0.969"/>
        </g>
      </g>
      <path id="Path_552" data-name="Path 552" d="M936.13,1649.392v5.644h-2.082a.47.47,0,0,0-.427.319.711.711,0,0,0,.084.723l4.209,4.207a.755.755,0,0,0,1.064,0l4.189-4.206a.7.7,0,0,0,.112-.717.519.519,0,0,0-.512-.325H940.6v-5.644" fill="none" stroke="#a3a3a3" stroke-miterlimit="10" stroke-width="0.969"/>
    </g>
    <g id="Group_400" data-name="Group 400">
      <circle id="Ellipse_102" data-name="Ellipse 102" cx="18.5" cy="18.5" r="18.5" transform="translate(919.783 1631.596)" fill="none" stroke="#78c360" stroke-miterlimit="10" stroke-width="0.969"/>
      <line id="Line_111" data-name="Line 111" y1="26.163" x2="26.163" transform="translate(925.201 1637.015)" fill="none" stroke="#78c360" stroke-miterlimit="10" stroke-width="0.969"/>
    </g>
  </g>
</svg>
