<svg xmlns="http://www.w3.org/2000/svg" width="37.969" height="37.969" viewBox="0 0 37.969 37.969">
  <g id="Group_391" data-name="Group 391" transform="translate(-777.154 -1631.112)">
    <circle id="Ellipse_97" data-name="Ellipse 97" cx="18.5" cy="18.5" r="18.5" transform="translate(777.638 1631.596)" fill="#fff"/>
    <g id="Group_389" data-name="Group 389">
      <g id="Group_388" data-name="Group 388">
        <path id="Path_543" data-name="Path 543" d="M806.211,1651.639v9.735h-21.7v-12.317h13.519" fill="none" stroke="#a3a3a3" stroke-miterlimit="10" stroke-width="0.969"/>
        <line id="Line_100" data-name="Line 100" x2="8.138" transform="translate(787.615 1652.337)" fill="none" stroke="#a3a3a3" stroke-miterlimit="10" stroke-width="0.969"/>
        <line id="Line_101" data-name="Line 101" x2="8.138" transform="translate(787.615 1655.044)" fill="none" stroke="#a3a3a3" stroke-miterlimit="10" stroke-width="0.969"/>
        <line id="Line_102" data-name="Line 102" x2="5.22" transform="translate(796.979 1658.336)" fill="none" stroke="#a3a3a3" stroke-miterlimit="10" stroke-width="0.969"/>
        <line id="Line_103" data-name="Line 103" x1="0.587" y2="1.358" transform="translate(799.512 1654.832)" fill="none" stroke="#a3a3a3" stroke-miterlimit="10" stroke-width="0.969"/>
        <g id="Group_386" data-name="Group 386">
          <path id="Path_544" data-name="Path 544" d="M799.65,1651.967a24.8,24.8,0,0,1,5.957-12.848,1.217,1.217,0,0,1,1.249-.217c.068.03.136.06.2.089a1.214,1.214,0,0,1,.7,1.056A25,25,0,0,1,802.5,1653.2Z" fill="none" stroke="#a3a3a3" stroke-miterlimit="10" stroke-width="0.969"/>
        </g>
        <g id="Group_387" data-name="Group 387">
          <path id="Path_545" data-name="Path 545" d="M799.807,1652.255l-.288,2.32,1.16.5,1.5-1.807" fill="none" stroke="#a3a3a3" stroke-miterlimit="10" stroke-width="0.969"/>
        </g>
        <path id="Path_546" data-name="Path 546" d="M804.371,1640.5l-1.9-.954a27.865,27.865,0,0,0-2.892,5.042" fill="none" stroke="#a3a3a3" stroke-miterlimit="10" stroke-width="0.969"/>
        <line id="Line_104" data-name="Line 104" x2="4.212" y2="1.817" transform="translate(801.989 1644.661)" fill="none" stroke="#a3a3a3" stroke-miterlimit="10" stroke-width="0.969"/>
      </g>
    </g>
    <g id="Group_390" data-name="Group 390">
      <circle id="Ellipse_98" data-name="Ellipse 98" cx="18.5" cy="18.5" r="18.5" transform="translate(777.638 1631.596)" fill="none" stroke="#78c360" stroke-miterlimit="10" stroke-width="0.969"/>
      <line id="Line_105" data-name="Line 105" y1="26.163" x2="26.163" transform="translate(783.057 1637.015)" fill="none" stroke="#78c360" stroke-miterlimit="10" stroke-width="0.969"/>
    </g>
  </g>
</svg>
