<svg xmlns="http://www.w3.org/2000/svg" width="37.969" height="37.969" viewBox="0 0 37.969 37.969">
  <g id="Group_396" data-name="Group 396" transform="translate(-848.226 -1631.112)">
    <circle id="Ellipse_99" data-name="Ellipse 99" cx="18.5" cy="18.5" r="18.5" transform="translate(848.711 1631.596)" fill="#fff"/>
    <g id="Group_394" data-name="Group 394">
      <line id="Line_106" data-name="Line 106" x2="5.56" transform="translate(864.43 1655.462)" fill="none" stroke="#a3a3a3" stroke-miterlimit="10" stroke-width="0.969"/>
      <line id="Line_107" data-name="Line 107" x1="16.54" transform="translate(858.941 1651.392)" fill="none" stroke="#a3a3a3" stroke-miterlimit="10" stroke-width="0.969"/>
      <line id="Line_108" data-name="Line 108" x2="5.643" transform="translate(864.389 1655.409)" fill="none" stroke="#a3a3a3" stroke-miterlimit="10" stroke-width="0.969"/>
      <line id="Line_109" data-name="Line 109" x2="5.643" transform="translate(864.389 1658.457)" fill="none" stroke="#a3a3a3" stroke-miterlimit="10" stroke-width="0.969"/>
      <path id="Path_547" data-name="Path 547" d="M859.39,1655.519h-2.4a1.167,1.167,0,0,1-1.163-1.163v-9.465a1.166,1.166,0,0,1,1.163-1.162h20.435a1.166,1.166,0,0,1,1.163,1.162v9.465a1.166,1.166,0,0,1-1.163,1.163h-2.439" fill="none" stroke="#a3a3a3" stroke-miterlimit="10" stroke-width="0.969"/>
      <path id="Path_548" data-name="Path 548" d="M873.115,1651.408v11.05h-11.81v-11.05" fill="none" stroke="#a3a3a3" stroke-miterlimit="10" stroke-width="0.969"/>
      <path id="Path_549" data-name="Path 549" d="M861.306,1643.675v-5.942h11.81v5.942" fill="none" stroke="#a3a3a3" stroke-miterlimit="10" stroke-width="0.969"/>
      <g id="Group_393" data-name="Group 393">
        <g id="Group_392" data-name="Group 392">
          <path id="Path_550" data-name="Path 550" d="M859.673,1647.052a.3.3,0,1,1-.3-.3A.3.3,0,0,1,859.673,1647.052Z" fill="none" stroke="#a3a3a3" stroke-miterlimit="10" stroke-width="0.969"/>
        </g>
      </g>
    </g>
    <g id="Group_395" data-name="Group 395">
      <circle id="Ellipse_100" data-name="Ellipse 100" cx="18.5" cy="18.5" r="18.5" transform="translate(848.711 1631.596)" fill="none" stroke="#78c360" stroke-miterlimit="10" stroke-width="0.969"/>
      <line id="Line_110" data-name="Line 110" y1="26.163" x2="26.163" transform="translate(854.129 1637.015)" fill="none" stroke="#78c360" stroke-miterlimit="10" stroke-width="0.969"/>
    </g>
  </g>
</svg>
