<svg xmlns="http://www.w3.org/2000/svg" width="57.882" height="65.164" viewBox="0 0 57.882 65.164">
  <g id="test" transform="translate(0)">
    <path id="Path_50" data-name="Path 50" d="M290.425,346.168a.955.955,0,0,0-1.35,0l-5.427,5.427-2.448-2.448a.954.954,0,0,0-1.35,0l-3.159,3.159a.954.954,0,0,0,0,1.35l6.282,6.282a.963.963,0,0,0,1.35,0l9.261-9.261a.963.963,0,0,0,0-1.35Zm-6.777,11.745-4.932-4.932,1.81-1.81,2.448,2.448a.954.954,0,0,0,1.35,0l5.427-5.427,1.809,1.81Zm0,0" transform="translate(-241.232 -301.866)" fill="#78c360"/>
    <path id="Path_51" data-name="Path 51" d="M55.552,65.024a.955.955,0,0,0,.955-.955V62.435a.955.955,0,1,0-1.909,0V64.07A.954.954,0,0,0,55.552,65.024Zm0,0" transform="translate(-47.649 -53.656)" fill="#78c360"/>
    <path id="Path_52" data-name="Path 52" d="M198.436,64.07V62.435a.955.955,0,0,0-1.909,0V64.07a.955.955,0,0,0,1.909,0Zm0,0" transform="translate(-171.515 -53.656)" fill="#78c360"/>
    <path id="Path_53" data-name="Path 53" d="M111.228,76.326a3.9,3.9,0,0,0,2.948-1.312.955.955,0,0,0-1.437-1.257,2.058,2.058,0,0,1-3.021,0,.955.955,0,0,0-1.437,1.257A3.9,3.9,0,0,0,111.228,76.326Zm0,0" transform="translate(-94.293 -64.085)" fill="#78c360"/>
    <path id="Path_54" data-name="Path 54" d="M55.552,188.147H83.783a.955.955,0,1,0,0-1.909H55.552a.955.955,0,1,0,0,1.909Zm0,0" transform="translate(-47.649 -162.535)" fill="#78c360"/>
    <path id="Path_55" data-name="Path 55" d="M55.552,242.315H83.783a.955.955,0,1,0,0-1.909H55.552a.955.955,0,1,0,0,1.909Zm0,0" transform="translate(-47.649 -209.809)" fill="#78c360"/>
    <path id="Path_56" data-name="Path 56" d="M55.552,296.483H73.57a.955.955,0,1,0,0-1.909H55.552a.955.955,0,1,0,0,1.909Zm0,0" transform="translate(-47.649 -257.083)" fill="#78c360"/>
    <path id="Path_57" data-name="Path 57" d="M55.552,350.651H73.616a.955.955,0,0,0,0-1.909H55.552a.955.955,0,1,0,0,1.909Zm0,0" transform="translate(-47.649 -304.357)" fill="#78c360"/>
    <path id="Path_58" data-name="Path 58" d="M3.876,60.891H33.857A13.964,13.964,0,0,0,51.9,62.649a.954.954,0,0,0-1.094-1.565,12,12,0,0,1-6.905,2.17A12.067,12.067,0,1,1,55.973,51.187a11.94,11.94,0,0,1-2.61,7.5.955.955,0,0,0,1.5,1.187,13.83,13.83,0,0,0,3.024-8.682,14,14,0,0,0-9.33-13.181V15.636a.939.939,0,0,0-.279-.675L33.591.28A.963.963,0,0,0,32.915,0H3.876A3.88,3.88,0,0,0,0,3.876V14.418a.955.955,0,1,0,1.909,0V3.876A1.969,1.969,0,0,1,3.876,1.909H31.961V12.631a3.964,3.964,0,0,0,3.959,3.959H46.643V37.48a13.979,13.979,0,0,0-14.34,21.5H3.876a1.969,1.969,0,0,1-1.967-1.967V18.226a.955.955,0,0,0-1.909,0V57.015A3.88,3.88,0,0,0,3.876,60.891Zm32.045-46.21a2.053,2.053,0,0,1-2.051-2.05V3.259L45.293,14.682Zm0,0" transform="translate(0 0)" fill="#78c360"/>
  </g>
</svg>
