<svg xmlns="http://www.w3.org/2000/svg" width="58.291" height="52.462" viewBox="0 0 58.291 52.462">
  <path id="suitcase" d="M55.376,8.744H42.747V4.858A4.863,4.863,0,0,0,37.889,0H20.4a4.863,4.863,0,0,0-4.858,4.858V8.744H2.915A2.915,2.915,0,0,0,0,11.658V33.284a2.927,2.927,0,0,0,1.943,2.743V49.547a2.915,2.915,0,0,0,2.915,2.915H53.433a2.915,2.915,0,0,0,2.915-2.915V36.028a2.928,2.928,0,0,0,1.943-2.744V11.658A2.915,2.915,0,0,0,55.376,8.744ZM17.487,4.858A2.915,2.915,0,0,1,20.4,1.943H37.889A2.915,2.915,0,0,1,40.8,4.858V8.744H38.861V4.858a.972.972,0,0,0-.972-.972H20.4a.972.972,0,0,0-.972.972V8.744H17.487Zm19.43,3.886H21.373V5.829H36.918ZM54.4,49.547a.972.972,0,0,1-.972.972H4.858a.972.972,0,0,1-.972-.972V36.361l21.373,2.948v2.467a2.915,2.915,0,0,0,2.915,2.915h1.943a2.915,2.915,0,0,0,2.915-2.915V39.308L54.4,36.361ZM31.089,41.775a.972.972,0,0,1-.972.972H28.174a.972.972,0,0,1-.972-.972V35.946a.972.972,0,0,1,.972-.972h1.943a.972.972,0,0,1,.972.972Zm25.259-8.491a.972.972,0,0,1-.835.963l-.269.037L33.032,37.347v-1.4a2.915,2.915,0,0,0-2.915-2.915H28.174a2.915,2.915,0,0,0-2.915,2.915v1.4l-22.48-3.1a.972.972,0,0,1-.836-.963V11.658a.972.972,0,0,1,.972-.972H55.376a.972.972,0,0,1,.972.972Zm0,0" transform="translate(0)" fill="#78c360"/>
</svg>
