<svg xmlns="http://www.w3.org/2000/svg" width="86.98" height="63.854" viewBox="0 0 86.98 63.854">
  <g id="team" transform="translate(0 -68.066)">
    <g id="Group_27" data-name="Group 27" transform="translate(66.722 95.312)">
      <g id="Group_26" data-name="Group 26">
        <path id="Path_59" data-name="Path 59" d="M402.769,229.946c-2.96-1.48-8.509-1.5-8.744-1.5a1.274,1.274,0,1,0,0,2.548c1.432,0,5.589.221,7.6,1.228a1.274,1.274,0,0,0,1.14-2.279Z" transform="translate(-392.751 -228.449)" fill="#78c360"/>
      </g>
    </g>
    <g id="Group_29" data-name="Group 29" transform="translate(0 68.066)">
      <g id="Group_28" data-name="Group 28">
        <path id="Path_60" data-name="Path 60" d="M83.092,114.95l-5.262-1.5a.534.534,0,0,1-.386-.512v-1.756a9.576,9.576,0,0,0,1.218-1,9.373,9.373,0,0,0,2.869-6.781v-2.424l.509-1.017a8.128,8.128,0,0,0,.853-3.616V89.775A1.274,1.274,0,0,0,81.619,88.5H69.358a8.1,8.1,0,0,0-8.086,8.086v.076a6.758,6.758,0,0,0,.71,3.007l.653,1.305v2.081a9.942,9.942,0,0,0,4.087,8.038v1.841c0,.284,0,.4-1.052.7l-2.568.734-7.427-2.7a1.273,1.273,0,0,0-.347-.975L52.954,108.2v-4.186c.251-.207.5-.419.738-.644A14.954,14.954,0,0,0,58.4,92.5V89.156a14.728,14.728,0,0,0,1.362-6.193V69.34a1.274,1.274,0,0,0-1.274-1.274H39.419A12.186,12.186,0,0,0,27.247,80.239v2.725a14.728,14.728,0,0,0,1.362,6.193v2.876a15.569,15.569,0,0,0,5.449,11.883V108.2l-2.373,2.494a1.273,1.273,0,0,0-.347.975L23.5,114.52a6.68,6.68,0,0,0-1.575.825l-1.231-.615c3.664-1.6,4.825-3.838,4.881-3.95a1.274,1.274,0,0,0,0-1.14c-.919-1.837-1.03-5.2-1.119-7.91-.03-.9-.058-1.752-.112-2.509-.434-6.111-5.08-10.72-10.807-10.72S3.162,93.109,2.728,99.221c-.054.758-.082,1.609-.112,2.51-.089,2.705-.2,6.072-1.119,7.909a1.274,1.274,0,0,0,0,1.14c.056.111,1.214,2.35,4.886,3.947l-3.419,1.71A5.333,5.333,0,0,0,0,121.232v9.413a1.274,1.274,0,0,0,2.548,0v-9.413A2.8,2.8,0,0,1,4.1,118.716l4.258-2.129,1.481,1.408a5.358,5.358,0,0,0,7.386,0l1.481-1.407,1.388.694a6.71,6.71,0,0,0-1.025,3.557v9.807a1.274,1.274,0,0,0,2.548,0v-9.807a4.188,4.188,0,0,1,2.748-3.924l8.265-3.005,3.441,5.161a2.627,2.627,0,0,0,1.934,1.161q.132.013.263.013a2.626,2.626,0,0,0,1.861-.772l2.1-2.1v13.272a1.274,1.274,0,1,0,2.548,0V117.373l2.1,2.1a2.625,2.625,0,0,0,1.861.772q.131,0,.263-.013a2.627,2.627,0,0,0,1.934-1.161l3.441-5.161,8.265,3.005a4.188,4.188,0,0,1,2.748,3.924v9.807a1.274,1.274,0,0,0,2.548,0v-9.807a6.736,6.736,0,0,0-1.885-4.662l.315-.09a6.987,6.987,0,0,0,1.186-.428l3.253,3.253v11.733a1.274,1.274,0,0,0,2.548,0V118.912l3.23-3.23a3.032,3.032,0,0,0,.542.215l5.262,1.5a2.825,2.825,0,0,1,2.04,2.7v10.54a1.274,1.274,0,1,0,2.548,0v-10.54A5.384,5.384,0,0,0,83.092,114.95ZM8.174,112.7a9.16,9.16,0,0,1-4.089-2.625,14.045,14.045,0,0,0,.726-3.051,9.5,9.5,0,0,0,3.363,4.149Zm7.3,3.448a2.812,2.812,0,0,1-3.876,0l-1.185-1.126a2.636,2.636,0,0,0,.31-1.244v-1.358a9.474,9.474,0,0,0,5.626,0v1.357a2.636,2.636,0,0,0,.31,1.245ZM13.536,110.3a6.908,6.908,0,0,1-6.9-6.9,1.266,1.266,0,0,0-1.483-1.255c0-.11.007-.219.011-.328.028-.876.056-1.7.106-2.413a9.459,9.459,0,0,1,2.576-5.94,7.916,7.916,0,0,1,11.379,0A9.459,9.459,0,0,1,21.8,99.4c.05.71.078,1.537.107,2.413l.008.227a11.449,11.449,0,0,0-6.293-4.6,15.99,15.99,0,0,0-4.846-.768,1.274,1.274,0,0,0-.882.389l-2.3,2.384a1.274,1.274,0,1,0,1.834,1.769l1.913-1.984c1.647.081,6.947.7,9.008,5.236A6.883,6.883,0,0,1,13.536,110.3ZM18.9,112.7v-1.52a9.425,9.425,0,0,0,3.364-4.153,14.027,14.027,0,0,0,.725,3.044A9.2,9.2,0,0,1,18.9,112.7Zm12.261-20.67V88.872a1.274,1.274,0,0,0-.127-.554,12.221,12.221,0,0,1-1.236-5.354V80.239a9.635,9.635,0,0,1,9.624-9.624h17.8V82.964a12.222,12.222,0,0,1-1.236,5.354,1.274,1.274,0,0,0-.127.554V92.5a12.232,12.232,0,0,1-3.906,9.012,12.686,12.686,0,0,1-.978.828l-.022.016a12.251,12.251,0,0,1-8.268,2.467A12.62,12.62,0,0,1,31.157,92.033Zm7.174,25.637a.08.08,0,0,1-.071.025.081.081,0,0,1-.065-.039l-3.963-5.944,1.275-1.34,6.011,4.109Zm5.175-4.917-6.9-4.716v-2.378a14.345,14.345,0,0,0,5.91,1.706q.5.033,1,.032a14.758,14.758,0,0,0,6.887-1.688v2.327Zm5.311,4.9a.081.081,0,0,1-.065.039.079.079,0,0,1-.071-.025l-3.188-3.188,6.011-4.109,1.275,1.34Zm23.266-1.075-2.891-2.891a3.5,3.5,0,0,0,.079-.757V112.4a8.934,8.934,0,0,0,2.523.446c.1,0,.2,0,.293,0a9.464,9.464,0,0,0,2.809-.425v.513a3.047,3.047,0,0,0,.092.743Zm4.8-8.232a6.848,6.848,0,0,1-5.018,1.944,7.132,7.132,0,0,1-6.687-7.239v-2.382a1.273,1.273,0,0,0-.135-.57l-.787-1.574a4.2,4.2,0,0,1-.441-1.867v-.076a5.544,5.544,0,0,1,5.538-5.538H80.345v5.292a5.567,5.567,0,0,1-.585,2.477l-.643,1.286a1.273,1.273,0,0,0-.135.57V103.4A6.845,6.845,0,0,1,76.888,108.35Z" transform="translate(0 -68.066)" fill="#78c360"/>
      </g>
    </g>
    <g id="Group_31" data-name="Group 31" transform="translate(78.983 121.197)">
      <g id="Group_30" data-name="Group 30">
        <path id="Path_61" data-name="Path 61" d="M466.2,380.814a1.274,1.274,0,0,0-1.274,1.274v8.174a1.274,1.274,0,1,0,2.548,0v-8.174A1.274,1.274,0,0,0,466.2,380.814Z" transform="translate(-464.923 -380.814)" fill="#78c360"/>
      </g>
    </g>
    <g id="Group_33" data-name="Group 33" transform="translate(5.449 122.881)">
      <g id="Group_32" data-name="Group 32">
        <path id="Path_62" data-name="Path 62" d="M33.351,390.728A1.274,1.274,0,0,0,32.077,392v6.49a1.274,1.274,0,1,0,2.548,0V392A1.274,1.274,0,0,0,33.351,390.728Z" transform="translate(-32.077 -390.728)" fill="#78c360"/>
      </g>
    </g>
    <g id="Group_35" data-name="Group 35" transform="translate(32.696 79.641)">
      <g id="Group_34" data-name="Group 34">
        <path id="Path_63" data-name="Path 63" d="M213.708,139.986c-4.819-4.819-14.9-3.9-19.013-3.278a2.616,2.616,0,0,0-2.235,2.606v2.935a1.274,1.274,0,1,0,2.548,0v-2.935a.084.084,0,0,1,.067-.086,40.255,40.255,0,0,1,8.278-.4c3.973.264,6.851,1.262,8.553,2.964a1.274,1.274,0,1,0,1.8-1.8Z" transform="translate(-192.46 -136.203)" fill="#78c360"/>
      </g>
    </g>
    <g id="Group_37" data-name="Group 37" transform="translate(27.247 123.921)">
      <g id="Group_36" data-name="Group 36">
        <path id="Path_64" data-name="Path 64" d="M161.658,396.853a1.274,1.274,0,0,0-1.274,1.274v5.449a1.274,1.274,0,0,0,2.548,0v-5.449A1.274,1.274,0,0,0,161.658,396.853Z" transform="translate(-160.384 -396.853)" fill="#78c360"/>
      </g>
    </g>
    <g id="Group_39" data-name="Group 39" transform="translate(57.218 123.921)">
      <g id="Group_38" data-name="Group 38">
        <path id="Path_65" data-name="Path 65" d="M338.08,396.853a1.274,1.274,0,0,0-1.274,1.274v5.449a1.274,1.274,0,0,0,2.548,0v-5.449A1.274,1.274,0,0,0,338.08,396.853Z" transform="translate(-336.806 -396.853)" fill="#78c360"/>
      </g>
    </g>
  </g>
</svg>
