<svg id="file_1_" data-name="file (1)" xmlns="http://www.w3.org/2000/svg" width="49.928" height="54.881" viewBox="0 0 49.928 54.881">
  <path id="Path_66" data-name="Path 66" d="M37.4,23.758V13.372a1.2,1.2,0,0,0-.332-.789L25.427.355A1.161,1.161,0,0,0,24.593,0H6.131A6.151,6.151,0,0,0,0,6.188V41.1a6.112,6.112,0,0,0,6.131,6.142H20.7A15.73,15.73,0,1,0,37.4,23.758ZM25.736,4.015l7.812,8.224H28.481a2.763,2.763,0,0,1-2.745-2.756ZM6.131,44.953A3.832,3.832,0,0,1,2.288,41.1V6.188a3.864,3.864,0,0,1,3.843-3.9H23.449V9.483a5.043,5.043,0,0,0,5.033,5.044h6.634V23.46c-.343-.011-.618-.046-.915-.046a15.96,15.96,0,0,0-10.432,3.935H9.242a1.144,1.144,0,1,0,0,2.287h12.4a18.2,18.2,0,0,0-2.013,3.546H9.242a1.144,1.144,0,0,0,0,2.288h9.642a15.7,15.7,0,0,0,.686,9.494H6.131Zm28.059,7.652a13.44,13.44,0,1,1,13.44-13.44A13.454,13.454,0,0,1,34.189,52.605Zm0,0" fill="#c3c3c3"/>
  <path id="Path_67" data-name="Path 67" d="M76.695,203.971H88.282a1.144,1.144,0,0,0,0-2.288H76.695a1.144,1.144,0,0,0,0,2.288Zm0,0" transform="translate(-67.453 -180.065)" fill="#c3c3c3"/>
  <path id="Path_68" data-name="Path 68" d="M254.239,283.577a1.135,1.135,0,0,0-1.67,0l-6.7,7.195a1.14,1.14,0,0,0,.057,1.613,1.168,1.168,0,0,0,1.635-.057l4.736-5.067v12.491a1.144,1.144,0,0,0,2.288,0V287.26l4.7,5.067a1.141,1.141,0,0,0,1.67-1.556Zm0,0" transform="translate(-219.238 -252.854)" fill="#c3c3c3"/>
</svg>
